HIERARCHY
ROOT root
{
	OFFSET	0	13.1	24.9
	CHANNELS 6  Xposition Yposition Zposition Xrotation Yrotation Zrotation
	JOINT spine_1
	{
		OFFSET	0	9.99999	0
		CHANNELS 3  Xrotation Yrotation Zrotation
		JOINT spine_2
		{
			OFFSET	0	112	-10
			CHANNELS 3  Xrotation Yrotation Zrotation
			JOINT spine_3
			{
				OFFSET	0	206.5	19.3
				CHANNELS 3  Xrotation Yrotation Zrotation
				JOINT spine_4
				{
					OFFSET	0	110.4	14.6
					CHANNELS 3  Xrotation Yrotation Zrotation
					JOINT neck_1
					{
						OFFSET	0	71.8	-50.3
						CHANNELS 3  Xrotation Yrotation Zrotation
						JOINT neck_2
						{
							OFFSET	0	86.2	-25.8
							CHANNELS 3  Xrotation Yrotation Zrotation
							JOINT head_ee
							{
								OFFSET	0	179.8	-8.7
								CHANNELS 3  Xrotation Yrotation Zrotation
								End Site
								{
									OFFSET	1	0	0
								}
							}
						}
					}
					JOINT left_clavicle
					{
						OFFSET	-43.2	22.4	-70.8
						CHANNELS 3  Xrotation Yrotation Zrotation
						JOINT left_shoulder
						{
							OFFSET	-93.9	-5.79999	48.7
							CHANNELS 3  Xrotation Yrotation Zrotation
							JOINT left_elbow
							{
								OFFSET	-291.4	-30.8	15.2
								CHANNELS 3  Xrotation Yrotation Zrotation
								JOINT left_lowarm_twist
								{
									OFFSET	-110.7	-3.89999	13.6
									CHANNELS 3  Xrotation Yrotation Zrotation
									JOINT left_hand
									{
										OFFSET	-110.7	-3.89999	13.6
										CHANNELS 3  Xrotation Yrotation Zrotation
										JOINT left_ee
										{
											OFFSET	-80.8	-5.10001	12.1
											CHANNELS 3  Xrotation Yrotation Zrotation
											End Site
											{
												OFFSET	1	0	0
											}
										}
									}
								}
							}
						}
					}
					JOINT right_clavicle
					{
						OFFSET	43.2	22.4	-70.8
						CHANNELS 3  Xrotation Yrotation Zrotation
						JOINT right_shoulder
						{
							OFFSET	93.9	-5.79999	48.7
							CHANNELS 3  Xrotation Yrotation Zrotation
							JOINT right_elbow
							{
								OFFSET	291.4	-30.8	15.2
								CHANNELS 3  Xrotation Yrotation Zrotation
								JOINT right_lowarm_twist
								{
									OFFSET	110.7	-3.89999	13.6
									CHANNELS 3  Xrotation Yrotation Zrotation
									JOINT right_hand
									{
										OFFSET	110.7	-3.89999	13.6
										CHANNELS 3  Xrotation Yrotation Zrotation
										JOINT right_ee
										{
											OFFSET	80.8	-5.10001	12.1
											CHANNELS 3  Xrotation Yrotation Zrotation
											End Site
											{
												OFFSET	1	0	0
											}
										}
									}
								}
							}
						}
					}
				}
			}
		}
	}
	JOINT left_hip
	{
		OFFSET	-82.8	-127.5	0.300001
		CHANNELS 3  Xrotation Yrotation Zrotation
		JOINT left_knee
		{
			OFFSET	-28.2	-396.7	2.2
			CHANNELS 3  Xrotation Yrotation Zrotation
			JOINT left_ankle
			{
				OFFSET	-11.7	-411.3	35.4
				CHANNELS 3  Xrotation Yrotation Zrotation
				JOINT left_toes
				{
					OFFSET	0	-60	-88.6
					CHANNELS 3  Xrotation Yrotation Zrotation
					JOINT left_foot_ee
					{
						OFFSET	-22.5	-16.5	-42.2
						CHANNELS 3  Xrotation Yrotation Zrotation
						End Site
						{
							OFFSET	1	0	0
						}
					}
				}
			}
		}
	}
	JOINT right_hip
	{
		OFFSET	82.8	-127.5	0.300001
		CHANNELS 3  Xrotation Yrotation Zrotation
		JOINT right_knee
		{
			OFFSET	28.2	-396.7	2.2
			CHANNELS 3  Xrotation Yrotation Zrotation
			JOINT right_ankle
			{
				OFFSET	11.7	-411.3	35.4
				CHANNELS 3  Xrotation Yrotation Zrotation
				JOINT right_toes
				{
					OFFSET	0	-60	-88.6
					CHANNELS 3  Xrotation Yrotation Zrotation
					JOINT right_foot_ee
					{
						OFFSET	22.5	-16.5	-42.2
						CHANNELS 3  Xrotation Yrotation Zrotation
						End Site
						{
							OFFSET	1	0	0
						}
					}
				}
			}
		}
	}
}
MOTION
Frames: 16
Frame Time: 0.02
391.555 721.904 -1204.45 -155.026131548 -5.8710822785 -170.480666591 10.9967 -0.291569 -0.415252 10.9968 -0.264555 -0.432964 10.9986 -0.255941 -0.438111 10.9985 -0.32192 -0.392192 -17.6075 9.36684 -3.24347 -18.0554 19.7757 0.592722 -0.0 0.0 -0.0 0.730247 16.7637 3.10239 -10.2909 -19.8537 69.6115 1.24841 -31.7324 0.354837 -21.8638 -1.25959 2.47874 2.52049 -19.9984 8.22071 -0.0 0.0 -0.0 8.70072 14.6192 -16.8464 -34.7444 52.039 -71.4847 0.239265 6.75961 -0.0141303 -73.9147 7.04619 -5.3202 -9.7771 -30.9855 44.9053 0.0 0.0 0.0 35.802 23.5697 -6.78595 -8.05843 0.246955 1.21105 32.2591 17.2719 -4.20696 -14.5708 0.0 0.0 -0.0 0.0 -0.0 38.0743 0.618559 -3.41712 -5.08212 -0.175632 -0.759925 17.3937 -15.2133 2.42533 15.3554 -0.0 -0.0 0.0 0.0 0.0 
376.424794842 709.674 -1125.41306656 -154.82478206 -43.976469309 -161.541518894 5.93798 0.168611 0.658043 5.93821 0.126398 0.667438 5.93941 0.0536604 0.677178 5.93881 0.159932 0.660206 -7.17369 4.6239 -4.74594 -7.09694 12.0066 -3.79986 -0.0 0.0 -0.0 -4.11314 23.1428 -3.00506 -4.72287 -10.7641 79.8845 0.239092 -6.75474 0.0141099 69.8881 -2.72876 -7.94031 -6.27952 29.3327 -22.9182 -0.0 0.0 -0.0 6.21709 28.1029 -10.2922 -12.3963 39.718 -75.5234 0.522839 14.5207 -0.0666097 -61.1129 5.42147 -5.13448 -7.34748 -29.3601 29.4854 0.0 0.0 0.0 29.8608 9.83717 -0.745556 -15.1586 0.321879 2.29722 41.1724 19.1996 -5.11676 -23.827 0.0 0.0 -0.0 0.0 -0.0 30.3774 -10.6177 0.877819 -17.3695 -0.317678 -2.63639 35.7951 -27.1909 4.81396 -36.134 0.0 0.0 0.0 0.0 0.0 
375.859788794 709.674 -1125.52332326 -154.991411746 -43.605277992 -161.782301977 5.93798 0.168611 0.658043 5.93821 0.126398 0.667438 5.93941 0.0536604 0.677178 5.93881 0.159932 0.660206 -7.17369 4.6239 -4.74594 -7.09694 12.0066 -3.79986 -0.0 0.0 -0.0 -4.11314 23.1428 -3.00506 -4.72287 -10.7641 79.8845 0.239092 -6.75474 0.0141099 69.8881 -2.72876 -7.94031 -6.27952 29.3327 -22.9182 -0.0 0.0 -0.0 6.21709 28.1029 -10.2922 -12.3963 39.718 -75.5234 0.522839 14.5207 -0.0666097 -61.1129 5.42147 -5.13448 -7.34748 -29.3601 29.4854 0.0 0.0 0.0 29.8608 9.83717 -0.745556 -15.1586 0.321879 2.29722 41.1724 19.1996 -5.11676 -23.827 0.0 0.0 -0.0 0.0 -0.0 30.3774 -10.6177 0.877819 -17.3695 -0.317678 -2.63639 35.7951 -27.1909 4.81396 -36.134 0.0 0.0 0.0 0.0 0.0 
374.171694163 709.674 -1125.8778635 -155.4720466 -42.4900781707 -162.486380703 5.93798 0.168611 0.658043 5.93821 0.126398 0.667438 5.93941 0.0536604 0.677178 5.93881 0.159932 0.660206 -7.17369 4.6239 -4.74594 -7.09694 12.0066 -3.79986 -0.0 0.0 -0.0 -4.11314 23.1428 -3.00506 -4.72287 -10.7641 79.8845 0.239092 -6.75474 0.0141099 69.8881 -2.72876 -7.94031 -6.27952 29.3327 -22.9182 -0.0 0.0 -0.0 6.21709 28.1029 -10.2922 -12.3963 39.718 -75.5234 0.522839 14.5207 -0.0666097 -61.1129 5.42147 -5.13448 -7.34748 -29.3601 29.4854 0.0 0.0 0.0 29.8608 9.83717 -0.745556 -15.1586 0.321879 2.29722 41.1724 19.1996 -5.11676 -23.827 0.0 0.0 -0.0 0.0 -0.0 30.3774 -10.6177 0.877819 -17.3695 -0.317678 -2.63639 35.7951 -27.1909 4.81396 -36.134 0.0 0.0 0.0 0.0 0.0 
382.931310262 709.606 -1128.48410979 -156.166059032 -40.8024152754 -163.425025962 5.99563 0.187396 0.639083 5.99584 0.14635 0.649711 5.99725 0.076078 0.66163 5.99668 0.179613 0.641313 -7.68306 4.03982 -4.52077 -7.62156 10.7436 -3.64103 -0.0 0.0 -0.0 -3.95132 22.9935 -2.81356 -5.33212 -10.6402 79.1156 0.197004 -5.57398 0.00959028 69.4724 -2.68581 -7.90869 -6.40718 29.2605 -23.7459 -0.0 0.0 -0.0 6.4004 28.2002 -10.6816 -12.9555 39.8816 -74.8746 0.505633 14.0621 -0.0623624 -62.3872 5.58104 -5.16927 -8.05787 -29.8958 33.5861 0.0 0.0 0.0 29.4101 7.57264 0.145178 -16.2808 0.321382 2.4694 40.1041 18.722 -5.00959 -23.7007 0.0 0.0 -0.0 0.0 -0.0 30.4025 -3.7419 -0.453051 -22.6519 -0.254722 -3.44419 37.2177 -26.6144 4.94397 -36.439 0.0 0.0 0.0 0.0 0.0 
385.345893166 707.486 -1130.47573109 -156.660493682 -40.716591099 -163.806476264 5.98956 0.20777 0.619721 5.98976 0.167916 0.631685 5.99137 0.0993814 0.646022 5.99084 0.200159 0.622221 -8.07166 3.48099 -4.45481 -8.01634 9.64165 -3.65787 -0.0 0.0 -0.0 -3.85016 23.4206 -2.57664 -6.40849 -10.608 79.5735 0.187757 -5.31387 0.00871295 68.9894 -2.63618 -7.87156 -6.55119 29.2452 -24.6296 -0.0 0.0 -0.0 6.79924 28.2487 -11.5478 -12.9062 40.0108 -74.3448 0.49288 13.721 -0.0593007 -63.288 5.69427 -5.19172 -8.54084 -30.2946 36.4486 0.0 0.0 0.0 30.1434 5.85807 0.22752 -16.9688 0.31941 2.57494 39.2989 18.3922 -4.9285 -23.6155 0.0 0.0 -0.0 0.0 -0.0 30.3543 1.99605 -1.37416 -26.3522 -0.166412 -4.00508 38.1797 -25.8725 5.01745 -36.6849 0.0 0.0 0.0 0.0 0.0 
385.371359372 707.486 -1130.47359797 -156.653765306 -40.7347008987 -163.796163591 5.98956 0.20777 0.619721 5.98976 0.167916 0.631685 5.99137 0.0993814 0.646022 5.99084 0.200159 0.622221 -8.07166 3.48099 -4.45481 -8.01634 9.64165 -3.65787 -0.0 0.0 -0.0 -3.85016 23.4206 -2.57664 -6.40849 -10.608 79.5735 0.187757 -5.31387 0.00871295 68.9894 -2.63618 -7.87156 -6.55119 29.2452 -24.6296 -0.0 0.0 -0.0 6.79924 28.2487 -11.5478 -12.9062 40.0108 -74.3448 0.49288 13.721 -0.0593007 -63.288 5.69427 -5.19172 -8.54084 -30.2946 36.4486 0.0 0.0 0.0 30.1434 5.85807 0.22752 -16.9688 0.31941 2.57494 39.2989 18.3922 -4.9285 -23.6155 0.0 0.0 -0.0 0.0 -0.0 30.3543 1.99605 -1.37416 -26.3522 -0.166412 -4.00508 38.1797 -25.8725 5.01745 -36.6849 0.0 0.0 0.0 0.0 0.0 
391.30162778 703.439 -1146.03358533 -157.315254229 -39.8604291013 -164.016185016 6.0232 0.297322 0.473225 6.02329 0.266607 0.491185 6.02546 0.212846 0.516757 6.0252 0.291786 0.476658 -10.0847 2.73309 -3.27779 -10.0687 7.35684 -2.51233 -0.0 0.0 -0.0 -3.79129 22.0418 -2.80113 -6.28922 -10.6047 79.4215 0.197627 -5.59151 0.00965094 69.0018 -2.63746 -7.87252 -6.77305 29.5539 -25.6968 -0.0 0.0 -0.0 7.15632 28.9063 -12.2554 -14.5078 40.2997 -71.6045 0.45867 12.8011 -0.051453 -64.3745 5.83126 -5.21641 -9.09956 -30.3769 40.4301 0.0 0.0 0.0 29.8844 5.31096 1.02704 -19.4771 0.301493 2.95934 41.8118 15.3025 -5.09667 -23.0565 0.0 0.0 -0.0 0.0 -0.0 31.8037 15.8351 -1.79238 -26.0235 -0.17572 -3.95549 35.7315 -26.461 4.7835 -37.6683 0.0 0.0 0.0 0.0 0.0 
392.193188773 703.439 -1146.03652197 -157.027900589 -40.6664007108 -163.571585744 6.0232 0.297322 0.473225 6.02329 0.266607 0.491185 6.02546 0.212846 0.516757 6.0252 0.291786 0.476658 -10.0847 2.73309 -3.27779 -10.0687 7.35684 -2.51233 -0.0 0.0 -0.0 -3.79129 22.0418 -2.80113 -6.28922 -10.6047 79.4215 0.197627 -5.59151 0.00965094 69.0018 -2.63746 -7.87252 -6.77305 29.5539 -25.6968 -0.0 0.0 -0.0 7.15632 28.9063 -12.2554 -14.5078 40.2997 -71.6045 0.45867 12.8011 -0.051453 -64.3745 5.83126 -5.21641 -9.09956 -30.3769 40.4301 0.0 0.0 0.0 29.8844 5.31096 1.02704 -19.4771 0.301493 2.95934 41.8118 15.3025 -5.09667 -23.0565 0.0 0.0 -0.0 0.0 -0.0 31.8037 15.8351 -1.79238 -26.0235 -0.17572 -3.95549 35.7315 -26.461 4.7835 -37.6683 0.0 0.0 0.0 0.0 0.0 
391.910683402 703.439 -1146.03411869 -157.120216145 -40.411194817 -163.713617409 6.0232 0.297322 0.473225 6.02329 0.266607 0.491185 6.02546 0.212846 0.516757 6.0252 0.291786 0.476658 -10.0847 2.73309 -3.27779 -10.0687 7.35684 -2.51233 -0.0 0.0 -0.0 -3.79129 22.0418 -2.80113 -6.28922 -10.6047 79.4215 0.197627 -5.59151 0.00965094 69.0018 -2.63746 -7.87252 -6.77305 29.5539 -25.6968 -0.0 0.0 -0.0 7.15632 28.9063 -12.2554 -14.5078 40.2997 -71.6045 0.45867 12.8011 -0.051453 -64.3745 5.83126 -5.21641 -9.09956 -30.3769 40.4301 0.0 0.0 0.0 29.8844 5.31096 1.02704 -19.4771 0.301493 2.95934 41.8118 15.3025 -5.09667 -23.0565 0.0 0.0 -0.0 0.0 -0.0 31.8037 15.8351 -1.79238 -26.0235 -0.17572 -3.95549 35.7315 -26.461 4.7835 -37.6683 0.0 0.0 0.0 0.0 0.0 
392.878932977 703.439 -1146.04804026 -156.798798227 -41.2852115048 -163.222211728 6.0232 0.297322 0.473225 6.02329 0.266607 0.491185 6.02546 0.212846 0.516757 6.0252 0.291786 0.476658 -10.0847 2.73309 -3.27779 -10.0687 7.35684 -2.51233 -0.0 0.0 -0.0 -3.79129 22.0418 -2.80113 -6.28922 -10.6047 79.4215 0.197627 -5.59151 0.00965094 69.0018 -2.63746 -7.87252 -6.77305 29.5539 -25.6968 -0.0 0.0 -0.0 7.15632 28.9063 -12.2554 -14.5078 40.2997 -71.6045 0.45867 12.8011 -0.051453 -64.3745 5.83126 -5.21641 -9.09956 -30.3769 40.4301 0.0 0.0 0.0 29.8844 5.31096 1.02704 -19.4771 0.301493 2.95934 41.8118 15.3025 -5.09667 -23.0565 0.0 0.0 -0.0 0.0 -0.0 31.8037 15.8351 -1.79238 -26.0235 -0.17572 -3.95549 35.7315 -26.461 4.7835 -37.6683 0.0 0.0 0.0 0.0 0.0 
392.507304978 703.439 -1146.04079854 -156.923848773 -40.9499728203 -163.412370931 6.0232 0.297322 0.473225 6.02329 0.266607 0.491185 6.02546 0.212846 0.516757 6.0252 0.291786 0.476658 -10.0847 2.73309 -3.27779 -10.0687 7.35684 -2.51233 -0.0 0.0 -0.0 -3.79129 22.0418 -2.80113 -6.28922 -10.6047 79.4215 0.197627 -5.59151 0.00965094 69.0018 -2.63746 -7.87252 -6.77305 29.5539 -25.6968 -0.0 0.0 -0.0 7.15632 28.9063 -12.2554 -14.5078 40.2997 -71.6045 0.45867 12.8011 -0.051453 -64.3745 5.83126 -5.21641 -9.09956 -30.3769 40.4301 0.0 0.0 0.0 29.8844 5.31096 1.02704 -19.4771 0.301493 2.95934 41.8118 15.3025 -5.09667 -23.0565 0.0 0.0 -0.0 0.0 -0.0 31.8037 15.8351 -1.79238 -26.0235 -0.17572 -3.95549 35.7315 -26.461 4.7835 -37.6683 0.0 0.0 0.0 0.0 0.0 
395.696381655 702.027 -1148.87582327 -157.022303534 -41.3079168775 -163.481817415 5.93141 0.315369 0.402572 5.93146 0.289113 0.421824 5.93352 0.24188 0.450573 5.93337 0.310003 0.406718 -10.3833 3.93248 -2.53395 -10.3919 9.10921 -1.46037 -0.0 0.0 -0.0 -3.67718 18.9985 -3.29817 -6.79443 -8.45814 79.9999 0.268904 -7.5877 0.0178316 69.8326 -2.72302 -7.9361 -6.71118 29.4136 -25.4494 -0.0 0.0 -0.0 7.69939 29.1786 -13.4143 -15.0825 40.527 -71.0093 0.407062 11.4008 -0.0406333 -65.5219 5.97637 -5.23964 -9.20164 -30.0989 41.6058 0.0 0.0 0.0 30.2342 7.13307 0.906035 -21.874 0.268668 3.32563 41.6372 13.0167 -5.04845 -21.4919 0.0 0.0 -0.0 0.0 -0.0 32.7238 22.3321 -3.05511 -27.3323 -0.136965 -4.1526 36.8666 -26.7435 4.9119 -37.3621 0.0 0.0 0.0 0.0 0.0 
396.083148948 702.027 -1148.90599917 -156.884199387 -41.6749384486 -163.273362037 5.93141 0.315369 0.402572 5.93146 0.289113 0.421824 5.93352 0.24188 0.450573 5.93337 0.310003 0.406718 -10.3833 3.93248 -2.53395 -10.3919 9.10921 -1.46037 -0.0 0.0 -0.0 -3.67718 18.9985 -3.29817 -6.79443 -8.45814 79.9999 0.268904 -7.5877 0.0178316 69.8326 -2.72302 -7.9361 -6.71118 29.4136 -25.4494 -0.0 0.0 -0.0 7.69939 29.1786 -13.4143 -15.0825 40.527 -71.0093 0.407062 11.4008 -0.0406333 -65.5219 5.97637 -5.23964 -9.20164 -30.0989 41.6058 0.0 0.0 0.0 30.2342 7.13307 0.906035 -21.874 0.268668 3.32563 41.6372 13.0167 -5.04845 -21.4919 0.0 0.0 -0.0 0.0 -0.0 32.7238 22.3321 -3.05511 -27.3323 -0.136965 -4.1526 36.8666 -26.7435 4.9119 -37.3621 0.0 0.0 0.0 0.0 0.0 
430.455560129 694.071 -1130.92076838 -160.467652107 -37.9755536059 -167.88594409 5.2345 0.375411 1.24329 5.23531 0.295543 1.26465 5.24106 0.141709 1.29097 5.2389 0.343799 1.2524 -3.98406 9.75889 -3.3942 -3.78325 20.4326 -1.97062 -0.0 0.0 -0.0 -4.70145 10.542 -6.86739 -5.37263 -4.78199 79.3029 0.504544 -14.033 0.0620981 73.0274 -3.06041 -8.16892 -6.93215 29.5032 -26.7244 -0.0 0.0 -0.0 8.0392 29.12 -14.1673 -17.8819 44.9623 -74.2718 0.402464 11.2754 -0.0397294 -69.4968 6.48182 -5.29746 -10.9863 -32.0743 54.1526 0.0 0.0 0.0 28.929 21.4683 -1.55139 -30.6059 0.0203826 4.64141 41.4639 13.7609 -5.04344 -13.5588 0.0 0.0 -0.0 0.0 -0.0 33.3895 31.615 -7.25689 -24.4157 -0.21715 -3.71223 37.0795 -22.7938 4.81632 -34.1455 0.0 0.0 0.0 0.0 0.0 
432.741721051 694.071 -1132.17652291 -159.978476698 -39.6662427681 -167.105712917 5.2345 0.375411 1.24329 5.23531 0.295543 1.26465 5.24106 0.141709 1.29097 5.2389 0.343799 1.2524 -3.98406 9.75889 -3.3942 -3.78325 20.4326 -1.97062 -0.0 0.0 -0.0 -4.70145 10.542 -6.86739 -5.37263 -4.78199 79.3029 0.504544 -14.033 0.0620981 73.0274 -3.06041 -8.16892 -6.93215 29.5032 -26.7244 -0.0 0.0 -0.0 8.0392 29.12 -14.1673 -17.8819 44.9623 -74.2718 0.402464 11.2754 -0.0397294 -69.4968 6.48182 -5.29746 -10.9863 -32.0743 54.1526 0.0 0.0 0.0 28.929 21.4683 -1.55139 -30.6059 0.0203826 4.64141 41.4639 13.7609 -5.04344 -13.5588 0.0 0.0 -0.0 0.0 -0.0 33.3895 31.615 -7.25689 -24.4157 -0.21715 -3.71223 37.0795 -22.7938 4.81632 -34.1455 0.0 0.0 0.0 0.0 0.0 
